<svg xmlns="http://www.w3.org/2000/svg" viewBox="0 0 420 120" role="img" aria-labelledby="t d"><title id="t">Museo Scasso</title><desc id="d">Museo de Ciencias Naturales A. Scasso</desc><rect width="420" height="120" rx="18" fill="#fffaf0"/><path d="M28 88V32h12l18 30 18-30h12v56H76V54L61 80h-6L40 54v34H28Zm82 0V32h39v11h-27v11h24v10h-24v13h28v11h-40Zm60 0V32h12l28 35V32h12v56h-10l-30-37v37h-12Zm75 0V32h24c18 0 31 12 31 28s-13 28-31 28h-24Zm12-11h12c11 0 18-7 18-17s-7-17-18-17h-12v34Zm67 11V32h39v11h-27v11h24v10h-24v13h29v11h-41Z" fill="#007fc4"/><text x="28" y="108" font-family="Arial, sans-serif" font-size="14" font-weight="700" fill="#4a5a65">Museo de Ciencias Naturales A. Scasso</text></svg>